<?xml version="1.0" standalone="no"?>
<!DOCTYPE svg PUBLIC "-//W3C//DTD SVG 20010904//EN"
 "http://www.w3.org/TR/2001/REC-SVG-20010904/DTD/svg10.dtd">
<svg version="1.0" xmlns="http://www.w3.org/2000/svg"
 width="512.000000pt" height="512.000000pt" viewBox="0 0 512.000000 512.000000"
 preserveAspectRatio="xMidYMid meet">

<g transform="translate(0.000000,512.000000) scale(0.100000,-0.100000)"
fill="#000000" stroke="none">
<path d="M2360 4890 c-310 -28 -653 -124 -885 -248 l-70 -37 -12 -65 c-39
-218 -40 -477 -3 -691 72 -421 302 -840 632 -1155 260 -248 575 -427 902 -514
342 -91 718 -85 1069 16 138 40 150 41 177 14 35 -35 25 -63 -59 -167 -145
-181 -343 -352 -550 -477 -52 -31 -98 -56 -103 -56 -6 0 11 -24 38 -52 44 -50
114 -176 114 -206 0 -10 6 -12 18 -7 99 41 129 47 222 43 77 -3 106 -9 151
-31 111 -54 193 -149 230 -269 22 -68 30 -78 72 -78 32 0 62 -14 92 -41 20
-18 21 -17 81 59 274 348 445 749 510 1197 24 166 25 507 1 666 -53 354 -185
706 -375 994 -101 154 -174 244 -308 380 -378 382 -861 628 -1386 705 -154 23
-421 32 -558 20z m-74 -528 c6 -4 28 -40 48 -80 40 -80 48 -85 141 -96 77 -9
105 -27 105 -68 0 -26 -12 -44 -62 -95 l-61 -62 13 -92 13 -92 -27 -24 c-32
-27 -42 -26 -134 23 -70 37 -67 37 -172 -16 -65 -33 -86 -33 -115 0 -17 18
-17 27 -5 111 l13 90 -61 62 c-50 51 -62 69 -62 95 0 42 26 57 119 71 41 7 78
14 83 17 5 3 22 33 39 67 17 34 38 70 47 80 15 17 58 23 78 9z m699 -406 c16
-12 24 -11 53 2 30 15 36 15 60 1 15 -8 33 -26 41 -41 14 -24 14 -30 -1 -60
-13 -29 -14 -36 -1 -55 35 -52 -16 -121 -79 -109 -40 8 -53 8 -100 0 -31 -5
-41 -2 -62 20 -27 26 -35 73 -15 93 8 8 8 20 -1 45 -17 46 -6 84 28 102 34 19
53 20 77 2z m-203 -563 c8 -10 20 -32 27 -49 18 -46 48 -74 79 -74 56 0 102
-20 108 -46 5 -21 -2 -34 -41 -74 l-48 -48 7 -72 c11 -108 -10 -121 -109 -73
l-55 27 -55 -27 c-67 -33 -90 -34 -109 -4 -12 17 -13 31 -6 62 16 70 13 85
-35 132 -70 69 -60 107 31 119 67 9 81 18 105 67 27 54 48 77 69 77 9 0 24 -8
32 -17z"/>
<path d="M437 3668 c-158 -286 -251 -553 -299 -863 -30 -198 -30 -512 0 -710
42 -270 119 -511 240 -750 84 -165 70 -154 139 -111 166 103 401 132 574 71
56 -20 118 -19 151 3 15 10 42 38 59 62 40 56 51 65 114 95 31 16 68 25 97 25
26 0 49 4 52 8 3 5 -16 19 -41 31 -75 36 -237 147 -331 225 -511 426 -791
1078 -742 1725 5 76 14 162 20 191 6 29 8 55 6 57 -2 2 -19 -24 -39 -59z"/>
</g>
</svg>
