<?xml version="1.0" standalone="no"?>
<!DOCTYPE svg PUBLIC "-//W3C//DTD SVG 20010904//EN"
 "http://www.w3.org/TR/2001/REC-SVG-20010904/DTD/svg10.dtd">
<svg version="1.0" xmlns="http://www.w3.org/2000/svg"
 width="512.000000pt" height="512.000000pt" viewBox="0 0 512.000000 512.000000"
 preserveAspectRatio="xMidYMid meet">

<g transform="translate(0.000000,512.000000) scale(0.100000,-0.100000)"
fill="#000000" stroke="none">
<path d="M1859 5107 c-98 -37 -154 -112 -255 -347 -116 -271 -134 -290 -274
-290 -47 1 -132 7 -190 15 -456 62 -567 -49 -505 -505 8 -58 14 -143 15 -190
0 -141 -18 -158 -285 -273 -94 -40 -196 -89 -227 -110 -138 -92 -171 -215 -97
-365 17 -35 76 -123 130 -195 169 -226 187 -278 129 -386 -17 -31 -75 -115
-129 -188 -54 -72 -113 -160 -130 -195 -74 -150 -41 -273 97 -365 31 -21 133
-70 227 -110 267 -115 285 -132 285 -273 -1 -47 -7 -132 -15 -190 -22 -158
-20 -297 6 -364 22 -60 67 -106 103 -106 13 0 35 9 50 21 33 26 34 69 4 112
-31 43 -35 131 -14 310 9 78 18 160 21 182 6 59 -12 170 -35 215 -44 87 -124
140 -350 235 -318 133 -330 170 -140 420 151 199 210 310 210 395 0 85 -59
196 -210 395 -190 250 -178 287 140 420 226 95 306 148 350 235 23 45 41 156
35 215 -3 22 -12 104 -21 182 -9 78 -14 174 -12 213 3 60 8 74 31 97 43 43
138 43 489 -2 54 -7 173 12 218 35 86 44 142 126 230 340 90 217 132 275 198
274 52 -2 101 -29 245 -138 164 -123 231 -162 309 -183 120 -31 203 2 431 173
158 120 231 159 276 149 56 -12 100 -80 181 -275 93 -225 141 -295 237 -342
58 -28 72 -31 161 -31 53 0 157 8 231 17 74 10 167 16 208 14 64 -3 76 -7 100
-31 24 -24 28 -36 31 -100 2 -41 -4 -134 -14 -208 -9 -74 -17 -178 -17 -231 0
-89 3 -103 31 -161 47 -96 117 -144 342 -237 217 -90 275 -132 274 -198 -2
-52 -29 -101 -138 -245 -123 -165 -162 -231 -183 -311 -17 -63 -17 -69 0 -132
21 -80 61 -149 185 -313 108 -143 134 -191 136 -243 1 -66 -57 -108 -274 -198
-225 -93 -295 -141 -341 -236 -28 -57 -31 -72 -32 -161 0 -54 8 -158 17 -232
10 -74 16 -167 14 -208 -3 -64 -7 -76 -31 -100 -24 -24 -36 -28 -100 -31 -41
-2 -134 4 -208 14 -74 9 -178 17 -232 17 -89 -1 -104 -4 -161 -32 -95 -46
-143 -117 -236 -341 -81 -195 -125 -263 -181 -275 -44 -10 -117 29 -266 141
-170 128 -223 159 -305 181 -65 17 -71 17 -134 0 -80 -21 -146 -60 -311 -183
-144 -109 -193 -136 -245 -138 -66 -1 -108 57 -198 274 -155 374 -227 411
-675 349 -95 -13 -103 -16 -120 -49 -11 -21 -12 -35 -4 -58 18 -52 41 -57 187
-38 71 9 165 16 208 16 133 0 153 -22 268 -290 105 -242 167 -323 271 -351
102 -28 198 12 410 170 168 125 217 151 276 151 58 0 117 -33 278 -153 76 -58
167 -119 202 -136 151 -74 274 -41 366 97 21 31 70 133 110 227 115 267 132
285 273 285 47 -1 132 -7 190 -15 145 -20 294 -19 355 2 63 21 127 85 148 148
21 61 22 210 2 355 -8 58 -14 143 -15 190 0 140 19 158 290 274 186 80 266
129 310 189 88 120 61 239 -110 466 -229 306 -229 296 0 602 171 227 198 346
110 466 -44 60 -124 109 -310 189 -271 116 -290 134 -290 274 1 47 7 132 15
190 20 145 19 294 -2 355 -21 63 -85 127 -148 148 -61 21 -210 22 -355 2 -58
-8 -143 -14 -190 -15 -141 0 -158 18 -273 285 -40 94 -89 196 -110 227 -92
138 -215 171 -366 97 -35 -17 -125 -78 -200 -134 -213 -160 -268 -180 -361
-136 -25 12 -112 71 -195 132 -82 62 -178 125 -213 141 -73 35 -159 45 -213
25z"/>
<path d="M2440 4288 c-448 -25 -906 -255 -1195 -600 -303 -360 -440 -774 -413
-1245 38 -688 516 -1306 1179 -1527 353 -118 745 -118 1098 0 513 171 924 582
1095 1095 154 462 104 987 -134 1403 -44 77 -76 102 -114 90 -68 -21 -73 -73
-16 -172 213 -368 258 -856 119 -1275 -204 -613 -778 -1047 -1424 -1074 -752
-32 -1420 462 -1606 1189 -214 841 299 1703 1143 1919 528 134 1078 -11 1480
-390 118 -111 140 -120 183 -76 17 16 25 36 25 57 0 29 -12 45 -94 123 -259
249 -574 407 -926 465 -136 22 -243 27 -400 18z"/>
<path d="M1775 3069 c-115 -17 -265 -114 -265 -171 0 -14 9 -37 21 -52 30 -38
75 -35 130 9 112 89 264 85 377 -10 58 -49 132 -22 132 49 0 27 -9 42 -46 76
-88 81 -217 118 -349 99z"/>
<path d="M3208 3069 c-74 -11 -160 -52 -215 -102 -34 -32 -43 -46 -43 -73 0
-71 74 -98 132 -49 113 95 265 99 377 10 56 -45 100 -47 131 -8 16 20 20 36
16 57 -8 39 -21 53 -91 98 -91 59 -197 82 -307 67z"/>
<path d="M2121 2314 c-35 -44 -27 -72 33 -129 93 -88 229 -144 371 -152 165
-9 331 48 441 151 60 58 68 86 33 130 -31 40 -73 35 -134 -15 -180 -151 -430
-151 -610 0 -61 50 -103 55 -134 15z"/>
</g>
</svg>
